<svg xmlns="http://www.w3.org/2000/svg" xmlns:oryx="http://oryx-editor.org" id="_6610AE77-99A4-4712-B4E2-A6A3B2D5CD6F" width="698" height="261" xmlns:xlink="http://www.w3.org/1999/xlink" xmlns:svg="http://www.w3.org/2000/svg"><defs><marker id="_8ECDEFB4-2D26-4B5E-A514-A21041626A44start" refX="1" refY="5" markerUnits="userSpaceOnUse" markerWidth="17" markerHeight="11" orient="auto" fill="#000000" stroke="#000000"> 	  		<path id="_8ECDEFB4-2D26-4B5E-A514-A21041626A44conditional" d="M 0 5 L 8 0 L 16 5 L 8 10 L 0 5" fill="white" stroke="#000000" stroke-width="1" display="none"/> 			<path id="_8ECDEFB4-2D26-4B5E-A514-A21041626A44default" d="M 5 0 L 11 10" fill="white" stroke="#000000" stroke-width="1" display="none"/> 	  	</marker><marker id="_8ECDEFB4-2D26-4B5E-A514-A21041626A44end" refX="15" refY="6" markerUnits="userSpaceOnUse" markerWidth="15" markerHeight="12" orient="auto" fill="#000000" stroke="#000000"> 	  		<path id="_8ECDEFB4-2D26-4B5E-A514-A21041626A44frame2" d="M 0 1 L 15 6 L 0 11z" fill="#000000" stroke="#000000" stroke-linejoin="round" stroke-width="2"/> 	  	</marker><marker id="_254CEB61-8919-4F37-BEE1-2B3656BA2BCDstart" refX="1" refY="5" markerUnits="userSpaceOnUse" markerWidth="17" markerHeight="11" orient="auto" fill="#000000" stroke="#000000"> 	  		<path id="_254CEB61-8919-4F37-BEE1-2B3656BA2BCDconditional" d="M 0 5 L 8 0 L 16 5 L 8 10 L 0 5" fill="white" stroke="#000000" stroke-width="1" display="none"/> 			<path id="_254CEB61-8919-4F37-BEE1-2B3656BA2BCDdefault" d="M 5 0 L 11 10" fill="white" stroke="#000000" stroke-width="1" display="none"/> 	  	</marker><marker id="_254CEB61-8919-4F37-BEE1-2B3656BA2BCDend" refX="15" refY="6" markerUnits="userSpaceOnUse" markerWidth="15" markerHeight="12" orient="auto" fill="#000000" stroke="#000000"> 	  		<path id="_254CEB61-8919-4F37-BEE1-2B3656BA2BCDframe2" d="M 0 1 L 15 6 L 0 11z" fill="#000000" stroke="#000000" stroke-linejoin="round" stroke-width="2"/> 	  	</marker><marker id="_FE8A4F88-723F-49A9-BEE6-5EE331EDA680start" refX="1" refY="5" markerUnits="userSpaceOnUse" markerWidth="17" markerHeight="11" orient="auto" fill="#000000" stroke="#000000"> 	  		<path id="_FE8A4F88-723F-49A9-BEE6-5EE331EDA680conditional" d="M 0 5 L 8 0 L 16 5 L 8 10 L 0 5" fill="white" stroke="#000000" stroke-width="1" display="none"/> 			<path id="_FE8A4F88-723F-49A9-BEE6-5EE331EDA680default" d="M 5 0 L 11 10" fill="white" stroke="#000000" stroke-width="1" display="none"/> 	  	</marker><marker id="_FE8A4F88-723F-49A9-BEE6-5EE331EDA680end" refX="15" refY="6" markerUnits="userSpaceOnUse" markerWidth="15" markerHeight="12" orient="auto" fill="#000000" stroke="#000000"> 	  		<path id="_FE8A4F88-723F-49A9-BEE6-5EE331EDA680frame2" d="M 0 1 L 15 6 L 0 11z" fill="#000000" stroke="#000000" stroke-linejoin="round" stroke-width="2"/> 	  	</marker><marker id="_3D6C8A2C-5F70-4ED7-8DF3-881BB18A9272start" refX="1" refY="5" markerUnits="userSpaceOnUse" markerWidth="17" markerHeight="11" orient="auto" fill="#000000" stroke="#000000"> 	  		<path id="_3D6C8A2C-5F70-4ED7-8DF3-881BB18A9272conditional" d="M 0 5 L 8 0 L 16 5 L 8 10 L 0 5" fill="white" stroke="#000000" stroke-width="1" display="none"/> 			<path id="_3D6C8A2C-5F70-4ED7-8DF3-881BB18A9272default" d="M 5 0 L 11 10" fill="white" stroke="#000000" stroke-width="1" display="none"/> 	  	</marker><marker id="_3D6C8A2C-5F70-4ED7-8DF3-881BB18A9272end" refX="15" refY="6" markerUnits="userSpaceOnUse" markerWidth="15" markerHeight="12" orient="auto" fill="#000000" stroke="#000000"> 	  		<path id="_3D6C8A2C-5F70-4ED7-8DF3-881BB18A9272frame2" d="M 0 1 L 15 6 L 0 11z" fill="#000000" stroke="#000000" stroke-linejoin="round" stroke-width="2"/> 	  	</marker></defs><g stroke="none" font-family="Verdana, sans-serif" font-size-adjust="none" font-style="normal" font-variant="normal" font-weight="normal" line-heigth="normal" font-size="12"><g class="stencils" transform="translate(15, 16)"><g class="me"/><g class="children"><g id="_074200ED-0C20-4373-A080-CEDC33BFD600" bpmn2nodeid="processStartEvent"><g class="stencils" transform="translate(120, 165)"><g class="me"><g pointer-events="fill" id="_074200ED-0C20-4373-A080-CEDC33BFD600">        <defs id="_074200ED-0C20-4373-A080-CEDC33BFD600__074200ED-0C20-4373-A080-CEDC33BFD600_5"> 		<radialGradient id="_074200ED-0C20-4373-A080-CEDC33BFD600background" cx="10%" cy="10%" r="100%" fx="10%" fy="10%"> 			<stop offset="0%" stop-color="#ffffff" stop-opacity="1" id="_074200ED-0C20-4373-A080-CEDC33BFD600__074200ED-0C20-4373-A080-CEDC33BFD600_6"/> 			<stop id="_074200ED-0C20-4373-A080-CEDC33BFD600fill_el" offset="100%" stop-color="#9acd32" stop-opacity="1"/> 		</radialGradient> 	</defs> 	     <circle id="_074200ED-0C20-4373-A080-CEDC33BFD600bg_frame" cx="15" cy="15" r="15" stroke="#000000" fill="url(#_074200ED-0C20-4373-A080-CEDC33BFD600background) white" stroke-width="1" style="stroke-dasharray: 5.5, 3"/>      <circle id="_074200ED-0C20-4373-A080-CEDC33BFD600frame" cx="15" cy="15" r="15" stroke="#000000" fill="none" stroke-width="1" display="inherit"/>  	<text font-size="11" id="_074200ED-0C20-4373-A080-CEDC33BFD600text_name" x="15" y="32" oryx:align="top center" stroke="black" stroke-width="0pt" letter-spacing="-0.01px" fill="#000000" text-anchor="middle" transform="rotate(0 15 32)" visibility="inherit" oryx:fontSize="11"/>   </g></g><g class="children" style="overflow:hidden"/><g class="edge"/></g><g class="controls"><g class="dockers"/><g class="magnets" transform="translate(120, 165)"><g pointer-events="all" display="none" transform="translate(7, 7)"><circle cx="8" cy="8" r="4" stroke="none" fill="red" fill-opacity="0.3"/></g></g></g></g><g id="_376A1986-5873-4081-9268-9AAD53D7152B" bpmn2nodeid="_72377A36-528C-4046-B70D-F722E8BD16E6"><g class="stencils" transform="translate(195, 140)"><g class="me"><g pointer-events="fill" oryx:minimumSize="50 40" id="_376A1986-5873-4081-9268-9AAD53D7152B">   	<defs id="_376A1986-5873-4081-9268-9AAD53D7152B__376A1986-5873-4081-9268-9AAD53D7152B_17"> 		<radialGradient id="_376A1986-5873-4081-9268-9AAD53D7152Bbackground" cx="10%" cy="10%" r="100%" fx="10%" fy="10%"> 			<stop offset="0%" stop-color="#ffffff" stop-opacity="1" id="_376A1986-5873-4081-9268-9AAD53D7152B__376A1986-5873-4081-9268-9AAD53D7152B_18"/> 			<stop id="_376A1986-5873-4081-9268-9AAD53D7152Bfill_el" offset="100%" stop-color="#fafad2" stop-opacity="1"/> 		</radialGradient> 		<radialGradient id="_376A1986-5873-4081-9268-9AAD53D7152Bborderbackground" cx="10%" cy="10%" r="100%" fx="10%" fy="10%"> 			<stop offset="0%" stop-color="#ffffff" stop-opacity="1" id="_376A1986-5873-4081-9268-9AAD53D7152B__376A1986-5873-4081-9268-9AAD53D7152B_19"/> 			<stop id="_376A1986-5873-4081-9268-9AAD53D7152Bfill_border" offset="100%" stop-color="#000000" stop-opacity="1" stroke="#000000"/> 		</radialGradient> 	</defs> 	 	<rect id="_376A1986-5873-4081-9268-9AAD53D7152Btext_frame" oryx:anchors="bottom top right left" x="1" y="1" width="94" height="79" rx="10" ry="10" stroke="none" stroke-width="0" fill="none"/> 	<rect id="_376A1986-5873-4081-9268-9AAD53D7152Bbg_frame" oryx:resize="vertical horizontal" x="0" y="0" width="100" height="80" rx="10" ry="10" stroke="#000000" stroke-width="1" fill="url(#_376A1986-5873-4081-9268-9AAD53D7152Bbackground) #ffffcc"/> 		<text font-size="12" id="_376A1986-5873-4081-9268-9AAD53D7152Btext_name" x="50" y="40" oryx:align="middle center" oryx:fittoelem="text_frame" stroke="black" text-anchor="middle" stroke-width="0pt" letter-spacing="-0.01px" fill="#000000" transform="rotate(0 50 40)" visibility="inherit" oryx:fontSize="12"><tspan x="50" y="40" dy="5" id="ext-gen858">Do not contact</tspan></text>     <g id="_376A1986-5873-4081-9268-9AAD53D7152BmanualTask" transform="scale(0.7,0.7) translate(8,8)" display="none">     	<path oryx:anchors="top left" id="_376A1986-5873-4081-9268-9AAD53D7152Bframe" style="opacity:1;fill:none;fill-opacity:1;stroke-width:1" d="M0.5,3.751l4.083-3.25c0,0,11.166,0.083,12.083,0.083s-2.417,2.917-1.5,2.917     s11.667,0,12.584,0c1.166,1.708-0.168,3.167-0.834,3.667s0.875,1.917-1,4.417c-0.75,0.25,0.75,1.875-1.333,3.333     c-1.167,0.583,0.583,1.542-1.25,2.833c-1.167,0-20.833,0.083-20.833,0.083l-2-1.333V3.751z" stroke="#000000"/> 		<path id="_376A1986-5873-4081-9268-9AAD53D7152Bframe2" oryx:anchors="top left" style="opacity:1;fill:none;stroke-width:2" d="M 13.5 7 L 27 7" stroke="#000000"/> 		<path id="_376A1986-5873-4081-9268-9AAD53D7152Bframe3" oryx:anchors="top left" style="opacity:1;fill:none;stroke-width:2" d="M 13.5 11 L 26 11" stroke="#000000"/> 		<path id="_376A1986-5873-4081-9268-9AAD53D7152Bframe4" oryx:anchors="top left" style="opacity:1;fill:none;stroke-width:1.5" d="M 14 14.5 L 25 14.5" stroke="#000000"/> 		<path id="_376A1986-5873-4081-9268-9AAD53D7152Bframe5" oryx:anchors="top left" style="opacity:1;fill:none;stroke-width:1.5" d="M 8.2 3.1 L 15 3.1" stroke="#000000"/> 	</g> 	 	<g id="_376A1986-5873-4081-9268-9AAD53D7152BbusinessRuleTask" transform="scale(0.7,0.7) translate(8,8)" display="inherit"> 		<rect id="_376A1986-5873-4081-9268-9AAD53D7152Bframe6" oryx:anchors="top left" x="0" y="0" width="22" height="4" style="opacity:1;fill:#B3B1B3;fill-opacity:1;" stroke="#000000"/> 		<rect id="_376A1986-5873-4081-9268-9AAD53D7152Bframe7" oryx:anchors="top left" x="0" y="4" style="opacity:1;fill:none;" width="22" height="12" stroke="#000000"/> 		<path id="_376A1986-5873-4081-9268-9AAD53D7152Bframe8" oryx:anchors="top left" style="opacity:1;fill:none;" d="M 0 10 L 22 10" stroke="#000000"/> 		<path id="_376A1986-5873-4081-9268-9AAD53D7152Bframe9" oryx:anchors="top left" style="opacity:1; fill:none;" d="M 7 4 L 7 16" stroke="#000000"/> 	</g> 	 	<g id="_376A1986-5873-4081-9268-9AAD53D7152BscriptTask" transform="scale(0.7,0.7) translate(8,8)" display="none"> 		<path oryx:anchors="top left" id="_376A1986-5873-4081-9268-9AAD53D7152Bframe10" style="opacity:1;fill:none;" stroke="#000000" d="M6.402,0.5h14.5c0,0-5.833,2.833-5.833,5.583s4.417,6,4.417,9.167    s-4.167,5.083-4.167,5.083H0.235c0,0,5-2.667,5-5s-4.583-6.75-4.583-9.25S6.402,0.5,6.402,0.5z"/> 		<path oryx:anchors="top left" id="_376A1986-5873-4081-9268-9AAD53D7152Bframe11" style="opacity:1;fill:none;stroke-width:1.5" d="M 3.5 4.5 L 13.5 4.5" stroke="#000000"/> 		<path oryx:anchors="top left" id="_376A1986-5873-4081-9268-9AAD53D7152Bframe12" style="opacity:1;fill:none;stroke-width:1.5" d="M 3.8 8.5 L 13.8 8.5" stroke="#000000"/> 		<path oryx:anchors="top left" id="_376A1986-5873-4081-9268-9AAD53D7152Bframe13" style="opacity:1;fill:none;stroke-width:1.5" d="M 6.3 12.5 L 16.3 12.5" stroke="#000000"/> 		<path oryx:anchors="top left" id="_376A1986-5873-4081-9268-9AAD53D7152Bframe14" style="opacity:1;fill:none;stroke-width:1.5" d="M 6.5 16.5 L 16.5 16.5" stroke="#000000"/> 	</g> 	 	<g id="_376A1986-5873-4081-9268-9AAD53D7152BuserTask" transform="scale(0.7,0.7) translate(8,8)" display="none"> 		<path id="_376A1986-5873-4081-9268-9AAD53D7152Bframe15" oryx:anchors="top left" style="opacity:1;fill:#F4F6F7" stroke="#000000" d="M0.585,24.167h24.083v-7.833c0,0-2.333-3.917-7.083-5.167h-9.25    c-4.417,1.333-7.833,5.75-7.833,5.75L0.585,24.167z"/> 		<path id="_376A1986-5873-4081-9268-9AAD53D7152Bframe16" oryx:anchors="top left" style="opacity:1;fill:none" d="M 6 20 L 6 24" stroke="#000000"/> 		<path id="_376A1986-5873-4081-9268-9AAD53D7152Bframe17" oryx:anchors="top left" style="opacity:1;fill:none" d="M 20 20 L 20 24" stroke="#000000"/> 		<circle id="_376A1986-5873-4081-9268-9AAD53D7152Bframe18" oryx:anchors="top left" fill="black" cx="13.002" cy="5.916" r="5.417" stroke="#000000"/> 		<path id="_376A1986-5873-4081-9268-9AAD53D7152Bframe19" oryx:anchors="top left" style="opacity:1;fill:#F0EFF0;" stroke="#000000" d="M8.043,7.083c0,0,2.814-2.426,5.376-1.807s4.624-0.693,4.624-0.693    c0.25,1.688,0.042,3.75-1.458,5.584c0,0,1.083,0.75,1.083,1.5s0.125,1.875-1,3s-5.5,1.25-6.75,0S8.668,12.834,8.668,12    s0.583-1.25,1.25-1.917C8.835,9.5,7.419,7.708,8.043,7.083z"/> 	</g> 	 	<g id="_376A1986-5873-4081-9268-9AAD53D7152BserviceTask" transform="scale(0.7,0.7) translate(8,8)" display="none"> 		<polygon oryx:anchors="top left" id="_376A1986-5873-4081-9268-9AAD53D7152Bframe20" style="opacity:1;fill:#ffffff" stroke="#000000" points="15.392,5.064 17.954,2.502 20.347,4.895 17.786,7.455     18.729,9.732 22.353,9.732 22.353,13.115 18.731,13.115 17.788,15.392 20.351,17.955 17.958,20.347 15.397,17.786 13.12,18.729     13.12,22.353 9.737,22.353 9.737,18.731 7.46,17.788 4.897,20.35 2.506,17.958 5.066,15.397 4.124,13.12 0.5,13.12 0.5,9.737     4.121,9.737 5.065,7.461 2.503,4.898 4.895,2.506 7.455,5.066 9.732,4.125 9.732,0.5 13.116,0.5 13.116,4.121 "/> 		<circle oryx:anchors="top left" id="_376A1986-5873-4081-9268-9AAD53D7152Bframe21" style="opacity:1;fill:none" stroke="#000000" cx="11.427" cy="11.426" r="3.714"/> 		<polygon oryx:anchors="top left" id="_376A1986-5873-4081-9268-9AAD53D7152Bframe22" style="opacity:1;fill:#ffffff" stroke="#000000" points="21.392,11.064 23.954,8.502 26.347,10.895 23.786,13.455     24.729,15.732 28.353,15.732 28.353,19.115 24.731,19.115 23.788,21.392 26.351,23.955 23.958,26.347 21.397,23.786 19.12,24.729     19.12,28.353 15.737,28.353 15.737,24.731 13.46,23.788 10.897,26.35 8.506,23.958 11.066,21.397 10.124,19.12 6.5,19.12     6.5,15.737 10.121,15.737 11.065,13.461 8.503,10.898 10.895,8.506 13.455,11.066 15.732,10.125 15.732,6.5 19.116,6.5     19.116,10.121 "/> 		<circle oryx:anchors="top left" id="_376A1986-5873-4081-9268-9AAD53D7152Bframe23" style="opacity:1;fill:none;" stroke="#000000" cx="17.427" cy="17.426" r="3.714"/> 	</g> 	 	<g id="_376A1986-5873-4081-9268-9AAD53D7152BsendTask" display="none"> 		<path id="_376A1986-5873-4081-9268-9AAD53D7152Bstframe24" oryx:anchors="left top" stroke="#FFFFFF" fill="black" stroke-width="1" d="M8,11 L8,21 L24,21 L24,11 L16,17z"/> 		<path id="_376A1986-5873-4081-9268-9AAD53D7152Bstframe25" oryx:anchors="left top" stroke="#FFFFFF" fill="black" stroke-width="1" d="M7,10 L16,17 L25 10z"/> 	</g> 	 	<g id="_376A1986-5873-4081-9268-9AAD53D7152BreceiveTask" display="none"> 		<path id="_376A1986-5873-4081-9268-9AAD53D7152Bframe26" oryx:anchors="left top" stroke="#000000" fill="none" stroke-width="1" d="M8,11 L8,21 L24,21 L24,11z M8,11 L16,17 L24,11"/> 	</g> 	 	<g id="_376A1986-5873-4081-9268-9AAD53D7152Bnone" display="none"/>  	<g id="_376A1986-5873-4081-9268-9AAD53D7152Bsequential" display="none">         <path oryx:anchors="bottom" fill="none" stroke="#000000" stroke-width="2" d="M46,76h10M46,72h10 M46,68h10" id="_376A1986-5873-4081-9268-9AAD53D7152B__376A1986-5873-4081-9268-9AAD53D7152B_20"/>     </g>   </g></g><g class="children" style="overflow:hidden"/><g class="edge"/></g><g class="controls"><g class="dockers"/><g class="magnets" transform="translate(195, 140)"><g pointer-events="all" display="none" transform="translate(-7, 12)"><circle cx="8" cy="8" r="4" stroke="none" fill="red" fill-opacity="0.3"/></g><g pointer-events="all" display="none" transform="translate(-7, 32)"><circle cx="8" cy="8" r="4" stroke="none" fill="red" fill-opacity="0.3"/></g><g pointer-events="all" display="none" transform="translate(-7, 52)"><circle cx="8" cy="8" r="4" stroke="none" fill="red" fill-opacity="0.3"/></g><g pointer-events="all" display="none" transform="translate(17, 71)"><circle cx="8" cy="8" r="4" stroke="none" fill="red" fill-opacity="0.3"/></g><g pointer-events="all" display="none" transform="translate(42, 71)"><circle cx="8" cy="8" r="4" stroke="none" fill="red" fill-opacity="0.3"/></g><g pointer-events="all" display="none" transform="translate(67, 71)"><circle cx="8" cy="8" r="4" stroke="none" fill="red" fill-opacity="0.3"/></g><g pointer-events="all" display="none" transform="translate(91, 12)"><circle cx="8" cy="8" r="4" stroke="none" fill="red" fill-opacity="0.3"/></g><g pointer-events="all" display="none" transform="translate(91, 32)"><circle cx="8" cy="8" r="4" stroke="none" fill="red" fill-opacity="0.3"/></g><g pointer-events="all" display="none" transform="translate(91, 52)"><circle cx="8" cy="8" r="4" stroke="none" fill="red" fill-opacity="0.3"/></g><g pointer-events="all" display="none" transform="translate(17, -7)"><circle cx="8" cy="8" r="4" stroke="none" fill="red" fill-opacity="0.3"/></g><g pointer-events="all" display="none" transform="translate(42, -7)"><circle cx="8" cy="8" r="4" stroke="none" fill="red" fill-opacity="0.3"/></g><g pointer-events="all" display="none" transform="translate(67, -7)"><circle cx="8" cy="8" r="4" stroke="none" fill="red" fill-opacity="0.3"/></g><g pointer-events="all" display="none" transform="translate(42, 32)"><circle cx="8" cy="8" r="4" stroke="none" fill="red" fill-opacity="0.3"/></g></g></g></g><g id="_CF4F71B0-24E0-4AC1-B84B-8D667DDF7863" bpmn2nodeid="_82849694-DD59-4883-8AEB-D24B1C3714FF"><g class="stencils" transform="translate(340, 140)"><g class="me"><g pointer-events="fill" oryx:minimumSize="50 40" id="_CF4F71B0-24E0-4AC1-B84B-8D667DDF7863">   	<defs id="_CF4F71B0-24E0-4AC1-B84B-8D667DDF7863__CF4F71B0-24E0-4AC1-B84B-8D667DDF7863_17"> 		<radialGradient id="_CF4F71B0-24E0-4AC1-B84B-8D667DDF7863background" cx="10%" cy="10%" r="100%" fx="10%" fy="10%"> 			<stop offset="0%" stop-color="#ffffff" stop-opacity="1" id="_CF4F71B0-24E0-4AC1-B84B-8D667DDF7863__CF4F71B0-24E0-4AC1-B84B-8D667DDF7863_18"/> 			<stop id="_CF4F71B0-24E0-4AC1-B84B-8D667DDF7863fill_el" offset="100%" stop-color="#fafad2" stop-opacity="1"/> 		</radialGradient> 		<radialGradient id="_CF4F71B0-24E0-4AC1-B84B-8D667DDF7863borderbackground" cx="10%" cy="10%" r="100%" fx="10%" fy="10%"> 			<stop offset="0%" stop-color="#ffffff" stop-opacity="1" id="_CF4F71B0-24E0-4AC1-B84B-8D667DDF7863__CF4F71B0-24E0-4AC1-B84B-8D667DDF7863_19"/> 			<stop id="_CF4F71B0-24E0-4AC1-B84B-8D667DDF7863fill_border" offset="100%" stop-color="#000000" stop-opacity="1" stroke="#000000"/> 		</radialGradient> 	</defs> 	 	<rect id="_CF4F71B0-24E0-4AC1-B84B-8D667DDF7863text_frame" oryx:anchors="bottom top right left" x="1" y="1" width="94" height="79" rx="10" ry="10" stroke="none" stroke-width="0" fill="none"/> 	<rect id="_CF4F71B0-24E0-4AC1-B84B-8D667DDF7863bg_frame" oryx:resize="vertical horizontal" x="0" y="0" width="100" height="80" rx="10" ry="10" stroke="#000000" stroke-width="1" fill="url(#_CF4F71B0-24E0-4AC1-B84B-8D667DDF7863background) #ffffcc"/> 		<text font-size="12" id="_CF4F71B0-24E0-4AC1-B84B-8D667DDF7863text_name" x="50" y="40" oryx:align="middle center" oryx:fittoelem="text_frame" stroke="black" text-anchor="middle" stroke-width="0pt" letter-spacing="-0.01px" fill="#000000" transform="rotate(0 50 40)" visibility="inherit" oryx:fontSize="12"><tspan x="50" y="40" dy="-1" id="ext-gen1044">Determine </tspan><tspan x="50" y="40" dy="11" id="ext-gen1043">Stage</tspan></text>     <g id="_CF4F71B0-24E0-4AC1-B84B-8D667DDF7863manualTask" transform="scale(0.7,0.7) translate(8,8)" display="none">     	<path oryx:anchors="top left" id="_CF4F71B0-24E0-4AC1-B84B-8D667DDF7863frame" style="opacity:1;fill:none;fill-opacity:1;stroke-width:1" d="M0.5,3.751l4.083-3.25c0,0,11.166,0.083,12.083,0.083s-2.417,2.917-1.5,2.917     s11.667,0,12.584,0c1.166,1.708-0.168,3.167-0.834,3.667s0.875,1.917-1,4.417c-0.75,0.25,0.75,1.875-1.333,3.333     c-1.167,0.583,0.583,1.542-1.25,2.833c-1.167,0-20.833,0.083-20.833,0.083l-2-1.333V3.751z" stroke="#000000"/> 		<path id="_CF4F71B0-24E0-4AC1-B84B-8D667DDF7863frame2" oryx:anchors="top left" style="opacity:1;fill:none;stroke-width:2" d="M 13.5 7 L 27 7" stroke="#000000"/> 		<path id="_CF4F71B0-24E0-4AC1-B84B-8D667DDF7863frame3" oryx:anchors="top left" style="opacity:1;fill:none;stroke-width:2" d="M 13.5 11 L 26 11" stroke="#000000"/> 		<path id="_CF4F71B0-24E0-4AC1-B84B-8D667DDF7863frame4" oryx:anchors="top left" style="opacity:1;fill:none;stroke-width:1.5" d="M 14 14.5 L 25 14.5" stroke="#000000"/> 		<path id="_CF4F71B0-24E0-4AC1-B84B-8D667DDF7863frame5" oryx:anchors="top left" style="opacity:1;fill:none;stroke-width:1.5" d="M 8.2 3.1 L 15 3.1" stroke="#000000"/> 	</g> 	 	<g id="_CF4F71B0-24E0-4AC1-B84B-8D667DDF7863businessRuleTask" transform="scale(0.7,0.7) translate(8,8)" display="inherit"> 		<rect id="_CF4F71B0-24E0-4AC1-B84B-8D667DDF7863frame6" oryx:anchors="top left" x="0" y="0" width="22" height="4" style="opacity:1;fill:#B3B1B3;fill-opacity:1;" stroke="#000000"/> 		<rect id="_CF4F71B0-24E0-4AC1-B84B-8D667DDF7863frame7" oryx:anchors="top left" x="0" y="4" style="opacity:1;fill:none;" width="22" height="12" stroke="#000000"/> 		<path id="_CF4F71B0-24E0-4AC1-B84B-8D667DDF7863frame8" oryx:anchors="top left" style="opacity:1;fill:none;" d="M 0 10 L 22 10" stroke="#000000"/> 		<path id="_CF4F71B0-24E0-4AC1-B84B-8D667DDF7863frame9" oryx:anchors="top left" style="opacity:1; fill:none;" d="M 7 4 L 7 16" stroke="#000000"/> 	</g> 	 	<g id="_CF4F71B0-24E0-4AC1-B84B-8D667DDF7863scriptTask" transform="scale(0.7,0.7) translate(8,8)" display="none"> 		<path oryx:anchors="top left" id="_CF4F71B0-24E0-4AC1-B84B-8D667DDF7863frame10" style="opacity:1;fill:none;" stroke="#000000" d="M6.402,0.5h14.5c0,0-5.833,2.833-5.833,5.583s4.417,6,4.417,9.167    s-4.167,5.083-4.167,5.083H0.235c0,0,5-2.667,5-5s-4.583-6.75-4.583-9.25S6.402,0.5,6.402,0.5z"/> 		<path oryx:anchors="top left" id="_CF4F71B0-24E0-4AC1-B84B-8D667DDF7863frame11" style="opacity:1;fill:none;stroke-width:1.5" d="M 3.5 4.5 L 13.5 4.5" stroke="#000000"/> 		<path oryx:anchors="top left" id="_CF4F71B0-24E0-4AC1-B84B-8D667DDF7863frame12" style="opacity:1;fill:none;stroke-width:1.5" d="M 3.8 8.5 L 13.8 8.5" stroke="#000000"/> 		<path oryx:anchors="top left" id="_CF4F71B0-24E0-4AC1-B84B-8D667DDF7863frame13" style="opacity:1;fill:none;stroke-width:1.5" d="M 6.3 12.5 L 16.3 12.5" stroke="#000000"/> 		<path oryx:anchors="top left" id="_CF4F71B0-24E0-4AC1-B84B-8D667DDF7863frame14" style="opacity:1;fill:none;stroke-width:1.5" d="M 6.5 16.5 L 16.5 16.5" stroke="#000000"/> 	</g> 	 	<g id="_CF4F71B0-24E0-4AC1-B84B-8D667DDF7863userTask" transform="scale(0.7,0.7) translate(8,8)" display="none"> 		<path id="_CF4F71B0-24E0-4AC1-B84B-8D667DDF7863frame15" oryx:anchors="top left" style="opacity:1;fill:#F4F6F7" stroke="#000000" d="M0.585,24.167h24.083v-7.833c0,0-2.333-3.917-7.083-5.167h-9.25    c-4.417,1.333-7.833,5.75-7.833,5.75L0.585,24.167z"/> 		<path id="_CF4F71B0-24E0-4AC1-B84B-8D667DDF7863frame16" oryx:anchors="top left" style="opacity:1;fill:none" d="M 6 20 L 6 24" stroke="#000000"/> 		<path id="_CF4F71B0-24E0-4AC1-B84B-8D667DDF7863frame17" oryx:anchors="top left" style="opacity:1;fill:none" d="M 20 20 L 20 24" stroke="#000000"/> 		<circle id="_CF4F71B0-24E0-4AC1-B84B-8D667DDF7863frame18" oryx:anchors="top left" fill="black" cx="13.002" cy="5.916" r="5.417" stroke="#000000"/> 		<path id="_CF4F71B0-24E0-4AC1-B84B-8D667DDF7863frame19" oryx:anchors="top left" style="opacity:1;fill:#F0EFF0;" stroke="#000000" d="M8.043,7.083c0,0,2.814-2.426,5.376-1.807s4.624-0.693,4.624-0.693    c0.25,1.688,0.042,3.75-1.458,5.584c0,0,1.083,0.75,1.083,1.5s0.125,1.875-1,3s-5.5,1.25-6.75,0S8.668,12.834,8.668,12    s0.583-1.25,1.25-1.917C8.835,9.5,7.419,7.708,8.043,7.083z"/> 	</g> 	 	<g id="_CF4F71B0-24E0-4AC1-B84B-8D667DDF7863serviceTask" transform="scale(0.7,0.7) translate(8,8)" display="none"> 		<polygon oryx:anchors="top left" id="_CF4F71B0-24E0-4AC1-B84B-8D667DDF7863frame20" style="opacity:1;fill:#ffffff" stroke="#000000" points="15.392,5.064 17.954,2.502 20.347,4.895 17.786,7.455     18.729,9.732 22.353,9.732 22.353,13.115 18.731,13.115 17.788,15.392 20.351,17.955 17.958,20.347 15.397,17.786 13.12,18.729     13.12,22.353 9.737,22.353 9.737,18.731 7.46,17.788 4.897,20.35 2.506,17.958 5.066,15.397 4.124,13.12 0.5,13.12 0.5,9.737     4.121,9.737 5.065,7.461 2.503,4.898 4.895,2.506 7.455,5.066 9.732,4.125 9.732,0.5 13.116,0.5 13.116,4.121 "/> 		<circle oryx:anchors="top left" id="_CF4F71B0-24E0-4AC1-B84B-8D667DDF7863frame21" style="opacity:1;fill:none" stroke="#000000" cx="11.427" cy="11.426" r="3.714"/> 		<polygon oryx:anchors="top left" id="_CF4F71B0-24E0-4AC1-B84B-8D667DDF7863frame22" style="opacity:1;fill:#ffffff" stroke="#000000" points="21.392,11.064 23.954,8.502 26.347,10.895 23.786,13.455     24.729,15.732 28.353,15.732 28.353,19.115 24.731,19.115 23.788,21.392 26.351,23.955 23.958,26.347 21.397,23.786 19.12,24.729     19.12,28.353 15.737,28.353 15.737,24.731 13.46,23.788 10.897,26.35 8.506,23.958 11.066,21.397 10.124,19.12 6.5,19.12     6.5,15.737 10.121,15.737 11.065,13.461 8.503,10.898 10.895,8.506 13.455,11.066 15.732,10.125 15.732,6.5 19.116,6.5     19.116,10.121 "/> 		<circle oryx:anchors="top left" id="_CF4F71B0-24E0-4AC1-B84B-8D667DDF7863frame23" style="opacity:1;fill:none;" stroke="#000000" cx="17.427" cy="17.426" r="3.714"/> 	</g> 	 	<g id="_CF4F71B0-24E0-4AC1-B84B-8D667DDF7863sendTask" display="none"> 		<path id="_CF4F71B0-24E0-4AC1-B84B-8D667DDF7863stframe24" oryx:anchors="left top" stroke="#FFFFFF" fill="black" stroke-width="1" d="M8,11 L8,21 L24,21 L24,11 L16,17z"/> 		<path id="_CF4F71B0-24E0-4AC1-B84B-8D667DDF7863stframe25" oryx:anchors="left top" stroke="#FFFFFF" fill="black" stroke-width="1" d="M7,10 L16,17 L25 10z"/> 	</g> 	 	<g id="_CF4F71B0-24E0-4AC1-B84B-8D667DDF7863receiveTask" display="none"> 		<path id="_CF4F71B0-24E0-4AC1-B84B-8D667DDF7863frame26" oryx:anchors="left top" stroke="#000000" fill="none" stroke-width="1" d="M8,11 L8,21 L24,21 L24,11z M8,11 L16,17 L24,11"/> 	</g> 	 	<g id="_CF4F71B0-24E0-4AC1-B84B-8D667DDF7863none" display="none"/>  	<g id="_CF4F71B0-24E0-4AC1-B84B-8D667DDF7863sequential" display="none">         <path oryx:anchors="bottom" fill="none" stroke="#000000" stroke-width="2" d="M46,76h10M46,72h10 M46,68h10" id="_CF4F71B0-24E0-4AC1-B84B-8D667DDF7863__CF4F71B0-24E0-4AC1-B84B-8D667DDF7863_20"/>     </g>   </g></g><g class="children" style="overflow:hidden"/><g class="edge"/></g><g class="controls"><g class="dockers"/><g class="magnets" transform="translate(340, 140)"><g pointer-events="all" display="none" transform="translate(-7, 12)"><circle cx="8" cy="8" r="4" stroke="none" fill="red" fill-opacity="0.3"/></g><g pointer-events="all" display="none" transform="translate(-7, 32)"><circle cx="8" cy="8" r="4" stroke="none" fill="red" fill-opacity="0.3"/></g><g pointer-events="all" display="none" transform="translate(-7, 52)"><circle cx="8" cy="8" r="4" stroke="none" fill="red" fill-opacity="0.3"/></g><g pointer-events="all" display="none" transform="translate(17, 71)"><circle cx="8" cy="8" r="4" stroke="none" fill="red" fill-opacity="0.3"/></g><g pointer-events="all" display="none" transform="translate(42, 71)"><circle cx="8" cy="8" r="4" stroke="none" fill="red" fill-opacity="0.3"/></g><g pointer-events="all" display="none" transform="translate(67, 71)"><circle cx="8" cy="8" r="4" stroke="none" fill="red" fill-opacity="0.3"/></g><g pointer-events="all" display="none" transform="translate(91, 12)"><circle cx="8" cy="8" r="4" stroke="none" fill="red" fill-opacity="0.3"/></g><g pointer-events="all" display="none" transform="translate(91, 32)"><circle cx="8" cy="8" r="4" stroke="none" fill="red" fill-opacity="0.3"/></g><g pointer-events="all" display="none" transform="translate(91, 52)"><circle cx="8" cy="8" r="4" stroke="none" fill="red" fill-opacity="0.3"/></g><g pointer-events="all" display="none" transform="translate(17, -7)"><circle cx="8" cy="8" r="4" stroke="none" fill="red" fill-opacity="0.3"/></g><g pointer-events="all" display="none" transform="translate(42, -7)"><circle cx="8" cy="8" r="4" stroke="none" fill="red" fill-opacity="0.3"/></g><g pointer-events="all" display="none" transform="translate(67, -7)"><circle cx="8" cy="8" r="4" stroke="none" fill="red" fill-opacity="0.3"/></g><g pointer-events="all" display="none" transform="translate(42, 32)"><circle cx="8" cy="8" r="4" stroke="none" fill="red" fill-opacity="0.3"/></g></g></g></g><g id="_C3DDF281-2D2A-4671-A6B7-FC779EBC7BB3" bpmn2nodeid="_9D29117F-FE2C-4F4F-AF5C-7137D7EAA7B4"><g class="stencils" transform="translate(485, 140)"><g class="me"><g pointer-events="fill" oryx:minimumSize="50 40" id="_C3DDF281-2D2A-4671-A6B7-FC779EBC7BB3">   	<defs id="_C3DDF281-2D2A-4671-A6B7-FC779EBC7BB3__C3DDF281-2D2A-4671-A6B7-FC779EBC7BB3_17"> 		<radialGradient id="_C3DDF281-2D2A-4671-A6B7-FC779EBC7BB3background" cx="10%" cy="10%" r="100%" fx="10%" fy="10%"> 			<stop offset="0%" stop-color="#ffffff" stop-opacity="1" id="_C3DDF281-2D2A-4671-A6B7-FC779EBC7BB3__C3DDF281-2D2A-4671-A6B7-FC779EBC7BB3_18"/> 			<stop id="_C3DDF281-2D2A-4671-A6B7-FC779EBC7BB3fill_el" offset="100%" stop-color="#fafad2" stop-opacity="1"/> 		</radialGradient> 		<radialGradient id="_C3DDF281-2D2A-4671-A6B7-FC779EBC7BB3borderbackground" cx="10%" cy="10%" r="100%" fx="10%" fy="10%"> 			<stop offset="0%" stop-color="#ffffff" stop-opacity="1" id="_C3DDF281-2D2A-4671-A6B7-FC779EBC7BB3__C3DDF281-2D2A-4671-A6B7-FC779EBC7BB3_19"/> 			<stop id="_C3DDF281-2D2A-4671-A6B7-FC779EBC7BB3fill_border" offset="100%" stop-color="#000000" stop-opacity="1" stroke="#000000"/> 		</radialGradient> 	</defs> 	 	<rect id="_C3DDF281-2D2A-4671-A6B7-FC779EBC7BB3text_frame" oryx:anchors="bottom top right left" x="1" y="1" width="94" height="79" rx="10" ry="10" stroke="none" stroke-width="0" fill="none"/> 	<rect id="_C3DDF281-2D2A-4671-A6B7-FC779EBC7BB3bg_frame" oryx:resize="vertical horizontal" x="0" y="0" width="100" height="80" rx="10" ry="10" stroke="#000000" stroke-width="1" fill="url(#_C3DDF281-2D2A-4671-A6B7-FC779EBC7BB3background) #ffffcc"/> 		<text font-size="12" id="_C3DDF281-2D2A-4671-A6B7-FC779EBC7BB3text_name" x="50" y="40" oryx:align="middle center" oryx:fittoelem="text_frame" stroke="black" text-anchor="middle" stroke-width="0pt" letter-spacing="-0.01px" fill="#000000" transform="rotate(0 50 40)" visibility="inherit" oryx:fontSize="12"><tspan x="50" y="40" dy="5" id="ext-gen2241">Treatment</tspan></text>     <g id="_C3DDF281-2D2A-4671-A6B7-FC779EBC7BB3manualTask" transform="scale(0.7,0.7) translate(8,8)" display="none">     	<path oryx:anchors="top left" id="_C3DDF281-2D2A-4671-A6B7-FC779EBC7BB3frame" style="opacity:1;fill:none;fill-opacity:1;stroke-width:1" d="M0.5,3.751l4.083-3.25c0,0,11.166,0.083,12.083,0.083s-2.417,2.917-1.5,2.917     s11.667,0,12.584,0c1.166,1.708-0.168,3.167-0.834,3.667s0.875,1.917-1,4.417c-0.75,0.25,0.75,1.875-1.333,3.333     c-1.167,0.583,0.583,1.542-1.25,2.833c-1.167,0-20.833,0.083-20.833,0.083l-2-1.333V3.751z" stroke="#000000"/> 		<path id="_C3DDF281-2D2A-4671-A6B7-FC779EBC7BB3frame2" oryx:anchors="top left" style="opacity:1;fill:none;stroke-width:2" d="M 13.5 7 L 27 7" stroke="#000000"/> 		<path id="_C3DDF281-2D2A-4671-A6B7-FC779EBC7BB3frame3" oryx:anchors="top left" style="opacity:1;fill:none;stroke-width:2" d="M 13.5 11 L 26 11" stroke="#000000"/> 		<path id="_C3DDF281-2D2A-4671-A6B7-FC779EBC7BB3frame4" oryx:anchors="top left" style="opacity:1;fill:none;stroke-width:1.5" d="M 14 14.5 L 25 14.5" stroke="#000000"/> 		<path id="_C3DDF281-2D2A-4671-A6B7-FC779EBC7BB3frame5" oryx:anchors="top left" style="opacity:1;fill:none;stroke-width:1.5" d="M 8.2 3.1 L 15 3.1" stroke="#000000"/> 	</g> 	 	<g id="_C3DDF281-2D2A-4671-A6B7-FC779EBC7BB3businessRuleTask" transform="scale(0.7,0.7) translate(8,8)" display="inherit"> 		<rect id="_C3DDF281-2D2A-4671-A6B7-FC779EBC7BB3frame6" oryx:anchors="top left" x="0" y="0" width="22" height="4" style="opacity:1;fill:#B3B1B3;fill-opacity:1;" stroke="#000000"/> 		<rect id="_C3DDF281-2D2A-4671-A6B7-FC779EBC7BB3frame7" oryx:anchors="top left" x="0" y="4" style="opacity:1;fill:none;" width="22" height="12" stroke="#000000"/> 		<path id="_C3DDF281-2D2A-4671-A6B7-FC779EBC7BB3frame8" oryx:anchors="top left" style="opacity:1;fill:none;" d="M 0 10 L 22 10" stroke="#000000"/> 		<path id="_C3DDF281-2D2A-4671-A6B7-FC779EBC7BB3frame9" oryx:anchors="top left" style="opacity:1; fill:none;" d="M 7 4 L 7 16" stroke="#000000"/> 	</g> 	 	<g id="_C3DDF281-2D2A-4671-A6B7-FC779EBC7BB3scriptTask" transform="scale(0.7,0.7) translate(8,8)" display="none"> 		<path oryx:anchors="top left" id="_C3DDF281-2D2A-4671-A6B7-FC779EBC7BB3frame10" style="opacity:1;fill:none;" stroke="#000000" d="M6.402,0.5h14.5c0,0-5.833,2.833-5.833,5.583s4.417,6,4.417,9.167    s-4.167,5.083-4.167,5.083H0.235c0,0,5-2.667,5-5s-4.583-6.75-4.583-9.25S6.402,0.5,6.402,0.5z"/> 		<path oryx:anchors="top left" id="_C3DDF281-2D2A-4671-A6B7-FC779EBC7BB3frame11" style="opacity:1;fill:none;stroke-width:1.5" d="M 3.5 4.5 L 13.5 4.5" stroke="#000000"/> 		<path oryx:anchors="top left" id="_C3DDF281-2D2A-4671-A6B7-FC779EBC7BB3frame12" style="opacity:1;fill:none;stroke-width:1.5" d="M 3.8 8.5 L 13.8 8.5" stroke="#000000"/> 		<path oryx:anchors="top left" id="_C3DDF281-2D2A-4671-A6B7-FC779EBC7BB3frame13" style="opacity:1;fill:none;stroke-width:1.5" d="M 6.3 12.5 L 16.3 12.5" stroke="#000000"/> 		<path oryx:anchors="top left" id="_C3DDF281-2D2A-4671-A6B7-FC779EBC7BB3frame14" style="opacity:1;fill:none;stroke-width:1.5" d="M 6.5 16.5 L 16.5 16.5" stroke="#000000"/> 	</g> 	 	<g id="_C3DDF281-2D2A-4671-A6B7-FC779EBC7BB3userTask" transform="scale(0.7,0.7) translate(8,8)" display="none"> 		<path id="_C3DDF281-2D2A-4671-A6B7-FC779EBC7BB3frame15" oryx:anchors="top left" style="opacity:1;fill:#F4F6F7" stroke="#000000" d="M0.585,24.167h24.083v-7.833c0,0-2.333-3.917-7.083-5.167h-9.25    c-4.417,1.333-7.833,5.75-7.833,5.75L0.585,24.167z"/> 		<path id="_C3DDF281-2D2A-4671-A6B7-FC779EBC7BB3frame16" oryx:anchors="top left" style="opacity:1;fill:none" d="M 6 20 L 6 24" stroke="#000000"/> 		<path id="_C3DDF281-2D2A-4671-A6B7-FC779EBC7BB3frame17" oryx:anchors="top left" style="opacity:1;fill:none" d="M 20 20 L 20 24" stroke="#000000"/> 		<circle id="_C3DDF281-2D2A-4671-A6B7-FC779EBC7BB3frame18" oryx:anchors="top left" fill="black" cx="13.002" cy="5.916" r="5.417" stroke="#000000"/> 		<path id="_C3DDF281-2D2A-4671-A6B7-FC779EBC7BB3frame19" oryx:anchors="top left" style="opacity:1;fill:#F0EFF0;" stroke="#000000" d="M8.043,7.083c0,0,2.814-2.426,5.376-1.807s4.624-0.693,4.624-0.693    c0.25,1.688,0.042,3.75-1.458,5.584c0,0,1.083,0.75,1.083,1.5s0.125,1.875-1,3s-5.5,1.25-6.75,0S8.668,12.834,8.668,12    s0.583-1.25,1.25-1.917C8.835,9.5,7.419,7.708,8.043,7.083z"/> 	</g> 	 	<g id="_C3DDF281-2D2A-4671-A6B7-FC779EBC7BB3serviceTask" transform="scale(0.7,0.7) translate(8,8)" display="none"> 		<polygon oryx:anchors="top left" id="_C3DDF281-2D2A-4671-A6B7-FC779EBC7BB3frame20" style="opacity:1;fill:#ffffff" stroke="#000000" points="15.392,5.064 17.954,2.502 20.347,4.895 17.786,7.455     18.729,9.732 22.353,9.732 22.353,13.115 18.731,13.115 17.788,15.392 20.351,17.955 17.958,20.347 15.397,17.786 13.12,18.729     13.12,22.353 9.737,22.353 9.737,18.731 7.46,17.788 4.897,20.35 2.506,17.958 5.066,15.397 4.124,13.12 0.5,13.12 0.5,9.737     4.121,9.737 5.065,7.461 2.503,4.898 4.895,2.506 7.455,5.066 9.732,4.125 9.732,0.5 13.116,0.5 13.116,4.121 "/> 		<circle oryx:anchors="top left" id="_C3DDF281-2D2A-4671-A6B7-FC779EBC7BB3frame21" style="opacity:1;fill:none" stroke="#000000" cx="11.427" cy="11.426" r="3.714"/> 		<polygon oryx:anchors="top left" id="_C3DDF281-2D2A-4671-A6B7-FC779EBC7BB3frame22" style="opacity:1;fill:#ffffff" stroke="#000000" points="21.392,11.064 23.954,8.502 26.347,10.895 23.786,13.455     24.729,15.732 28.353,15.732 28.353,19.115 24.731,19.115 23.788,21.392 26.351,23.955 23.958,26.347 21.397,23.786 19.12,24.729     19.12,28.353 15.737,28.353 15.737,24.731 13.46,23.788 10.897,26.35 8.506,23.958 11.066,21.397 10.124,19.12 6.5,19.12     6.5,15.737 10.121,15.737 11.065,13.461 8.503,10.898 10.895,8.506 13.455,11.066 15.732,10.125 15.732,6.5 19.116,6.5     19.116,10.121 "/> 		<circle oryx:anchors="top left" id="_C3DDF281-2D2A-4671-A6B7-FC779EBC7BB3frame23" style="opacity:1;fill:none;" stroke="#000000" cx="17.427" cy="17.426" r="3.714"/> 	</g> 	 	<g id="_C3DDF281-2D2A-4671-A6B7-FC779EBC7BB3sendTask" display="none"> 		<path id="_C3DDF281-2D2A-4671-A6B7-FC779EBC7BB3stframe24" oryx:anchors="left top" stroke="#FFFFFF" fill="black" stroke-width="1" d="M8,11 L8,21 L24,21 L24,11 L16,17z"/> 		<path id="_C3DDF281-2D2A-4671-A6B7-FC779EBC7BB3stframe25" oryx:anchors="left top" stroke="#FFFFFF" fill="black" stroke-width="1" d="M7,10 L16,17 L25 10z"/> 	</g> 	 	<g id="_C3DDF281-2D2A-4671-A6B7-FC779EBC7BB3receiveTask" display="none"> 		<path id="_C3DDF281-2D2A-4671-A6B7-FC779EBC7BB3frame26" oryx:anchors="left top" stroke="#000000" fill="none" stroke-width="1" d="M8,11 L8,21 L24,21 L24,11z M8,11 L16,17 L24,11"/> 	</g> 	 	<g id="_C3DDF281-2D2A-4671-A6B7-FC779EBC7BB3none" display="none"/>  	<g id="_C3DDF281-2D2A-4671-A6B7-FC779EBC7BB3sequential" display="none">         <path oryx:anchors="bottom" fill="none" stroke="#000000" stroke-width="2" d="M46,76h10M46,72h10 M46,68h10" id="_C3DDF281-2D2A-4671-A6B7-FC779EBC7BB3__C3DDF281-2D2A-4671-A6B7-FC779EBC7BB3_20"/>     </g>   </g></g><g class="children" style="overflow:hidden"/><g class="edge"/></g><g class="controls"><g class="dockers"/><g class="magnets" transform="translate(485, 140)"><g pointer-events="all" display="none" transform="translate(-7, 12)"><circle cx="8" cy="8" r="4" stroke="none" fill="red" fill-opacity="0.3"/></g><g pointer-events="all" display="none" transform="translate(-7, 32)"><circle cx="8" cy="8" r="4" stroke="none" fill="red" fill-opacity="0.3"/></g><g pointer-events="all" display="none" transform="translate(-7, 52)"><circle cx="8" cy="8" r="4" stroke="none" fill="red" fill-opacity="0.3"/></g><g pointer-events="all" display="none" transform="translate(17, 71)"><circle cx="8" cy="8" r="4" stroke="none" fill="red" fill-opacity="0.3"/></g><g pointer-events="all" display="none" transform="translate(42, 71)"><circle cx="8" cy="8" r="4" stroke="none" fill="red" fill-opacity="0.3"/></g><g pointer-events="all" display="none" transform="translate(67, 71)"><circle cx="8" cy="8" r="4" stroke="none" fill="red" fill-opacity="0.3"/></g><g pointer-events="all" display="none" transform="translate(91, 12)"><circle cx="8" cy="8" r="4" stroke="none" fill="red" fill-opacity="0.3"/></g><g pointer-events="all" display="none" transform="translate(91, 32)"><circle cx="8" cy="8" r="4" stroke="none" fill="red" fill-opacity="0.3"/></g><g pointer-events="all" display="none" transform="translate(91, 52)"><circle cx="8" cy="8" r="4" stroke="none" fill="red" fill-opacity="0.3"/></g><g pointer-events="all" display="none" transform="translate(17, -7)"><circle cx="8" cy="8" r="4" stroke="none" fill="red" fill-opacity="0.3"/></g><g pointer-events="all" display="none" transform="translate(42, -7)"><circle cx="8" cy="8" r="4" stroke="none" fill="red" fill-opacity="0.3"/></g><g pointer-events="all" display="none" transform="translate(67, -7)"><circle cx="8" cy="8" r="4" stroke="none" fill="red" fill-opacity="0.3"/></g><g pointer-events="all" display="none" transform="translate(42, 32)"><circle cx="8" cy="8" r="4" stroke="none" fill="red" fill-opacity="0.3"/></g></g></g></g><g id="_60CFE4E4-EB19-4A5D-90E8-248F5281AFC5" bpmn2nodeid="_B9C86F52-17AF-498B-97B2-F6653FB802DF"><g class="stencils" transform="translate(630, 166)"><g class="me"><g pointer-events="fill" id="_60CFE4E4-EB19-4A5D-90E8-248F5281AFC5">      <defs id="_60CFE4E4-EB19-4A5D-90E8-248F5281AFC5__60CFE4E4-EB19-4A5D-90E8-248F5281AFC5_5"> 		<radialGradient id="_60CFE4E4-EB19-4A5D-90E8-248F5281AFC5background" cx="10%" cy="10%" r="100%" fx="10%" fy="10%"> 			<stop offset="0%" stop-color="#ffffff" stop-opacity="1" id="_60CFE4E4-EB19-4A5D-90E8-248F5281AFC5__60CFE4E4-EB19-4A5D-90E8-248F5281AFC5_6"/> 			<stop id="_60CFE4E4-EB19-4A5D-90E8-248F5281AFC5fill_el" offset="100%" stop-color="#ff6347" stop-opacity="1"/> 		</radialGradient> 	</defs> 	     <circle id="_60CFE4E4-EB19-4A5D-90E8-248F5281AFC5bg_frame" cx="14" cy="14" r="14" stroke="#000000" fill="url(#_60CFE4E4-EB19-4A5D-90E8-248F5281AFC5background) white" stroke-width="3"/> 	<text font-size="11" id="_60CFE4E4-EB19-4A5D-90E8-248F5281AFC5text_name" x="14" y="30" oryx:align="top center" stroke="black" stroke-width="0pt" letter-spacing="-0.01px" fill="#000000" text-anchor="middle" transform="rotate(0 14 30)" visibility="inherit" oryx:fontSize="11"/>   </g></g><g class="children" style="overflow:hidden"/><g class="edge"/></g><g class="controls"><g class="dockers"/><g class="magnets" transform="translate(630, 166)"><g pointer-events="all" display="none" transform="translate(6, 6)"><circle cx="8" cy="8" r="4" stroke="none" fill="red" fill-opacity="0.3"/></g></g></g></g></g><g class="edge"><g id="_8ECDEFB4-2D26-4B5E-A514-A21041626A44" bpmn2nodeid="_7825A1FB-BE74-47E1-B25A-2E511E2F564F"><g class="stencils"><g class="me"><g pointer-events="painted" bpmn2nodeid="_7825A1FB-BE74-47E1-B25A-2E511E2F564F"><path id="_8ECDEFB4-2D26-4B5E-A514-A21041626A44_1" d="M150.609375 180L194.15625 180 " stroke="#000000" fill="none" stroke-width="2" stroke-linecap="round" stroke-linejoin="round" marker-start="url(#_8ECDEFB4-2D26-4B5E-A514-A21041626A44start)" marker-end="url(#_8ECDEFB4-2D26-4B5E-A514-A21041626A44end)"/></g><text id="_8ECDEFB4-2D26-4B5E-A514-A21041626A44text_name" font-size="12" x="164.609375" y="166" oryx:edgePosition="startTop" stroke-width="0pt" letter-spacing="-0.01px" fill="#000000" text-anchor="start" transform="rotate(360 150.609375 180)" visibility="inherit" oryx:fontSize="12"/></g><g class="children" style="overflow:hidden"/><g class="edge"/></g><g class="controls"><g class="dockers"/><g class="magnets"/></g></g><g id="_254CEB61-8919-4F37-BEE1-2B3656BA2BCD" bpmn2nodeid="_24C6F7E5-613C-415C-8F7E-456AD5CDE8BB"><g class="stencils"><g class="me"><g pointer-events="painted" bpmn2nodeid="_24C6F7E5-613C-415C-8F7E-456AD5CDE8BB"><path id="_254CEB61-8919-4F37-BEE1-2B3656BA2BCD_1" d="M295.84375 180L339.15625 180 " stroke="#000000" fill="none" stroke-width="2" stroke-linecap="round" stroke-linejoin="round" marker-start="url(#_254CEB61-8919-4F37-BEE1-2B3656BA2BCDstart)" marker-end="url(#_254CEB61-8919-4F37-BEE1-2B3656BA2BCDend)"/></g><text id="_254CEB61-8919-4F37-BEE1-2B3656BA2BCDtext_name" font-size="12" x="309.84375" y="166" oryx:edgePosition="startTop" stroke-width="0pt" letter-spacing="-0.01px" fill="#000000" text-anchor="start" transform="rotate(360 295.84375 180)" visibility="inherit" oryx:fontSize="12"/></g><g class="children" style="overflow:hidden"/><g class="edge"/></g><g class="controls"><g class="dockers"/><g class="magnets"/></g></g><g id="_FE8A4F88-723F-49A9-BEE6-5EE331EDA680" bpmn2nodeid="_3D6728CD-5D53-41F3-AA3F-8D29C6DAF25A"><g class="stencils"><g class="me"><g pointer-events="painted" bpmn2nodeid="_3D6728CD-5D53-41F3-AA3F-8D29C6DAF25A"><path id="_FE8A4F88-723F-49A9-BEE6-5EE331EDA680_1" d="M440.84375 180L484.15625 180 " stroke="#000000" fill="none" stroke-width="2" stroke-linecap="round" stroke-linejoin="round" marker-start="url(#_FE8A4F88-723F-49A9-BEE6-5EE331EDA680start)" marker-end="url(#_FE8A4F88-723F-49A9-BEE6-5EE331EDA680end)"/></g><text id="_FE8A4F88-723F-49A9-BEE6-5EE331EDA680text_name" font-size="12" x="454.84375" y="166" oryx:edgePosition="startTop" stroke-width="0pt" letter-spacing="-0.01px" fill="#000000" text-anchor="start" transform="rotate(360 440.84375 180)" visibility="inherit" oryx:fontSize="12"/></g><g class="children" style="overflow:hidden"/><g class="edge"/></g><g class="controls"><g class="dockers"/><g class="magnets"/></g></g><g id="_3D6C8A2C-5F70-4ED7-8DF3-881BB18A9272" bpmn2nodeid="_146F24F5-1CF4-4A95-849E-EA29F58B2061"><g class="stencils"><g class="me"><g pointer-events="painted" bpmn2nodeid="_146F24F5-1CF4-4A95-849E-EA29F58B2061"><path id="_3D6C8A2C-5F70-4ED7-8DF3-881BB18A9272_1" d="M585.390625 180L629.375 180 " stroke="#000000" fill="none" stroke-width="2" stroke-linecap="round" stroke-linejoin="round" marker-start="url(#_3D6C8A2C-5F70-4ED7-8DF3-881BB18A9272start)" marker-end="url(#_3D6C8A2C-5F70-4ED7-8DF3-881BB18A9272end)"/></g><text id="_3D6C8A2C-5F70-4ED7-8DF3-881BB18A9272text_name" font-size="12" x="599.390625" y="166" oryx:edgePosition="startTop" stroke-width="0pt" letter-spacing="-0.01px" fill="#000000" text-anchor="start" transform="rotate(360 585.390625 180)" visibility="inherit" oryx:fontSize="12"/></g><g class="children" style="overflow:hidden"/><g class="edge"/></g><g class="controls"><g class="dockers"/><g class="magnets"/></g></g></g><text id="_2FA19E62-06D1-4822-840D-B4904D29CD81" style="stroke-width:1;fill:rgb(177,194,214);font-family:arial;font-weight:bold" font-size="12" onclick="ORYX.Plugins.CanvasTitle.openTextualAnalysis()" onmouseover="ORYX.Plugins.CanvasTitle.addToolTip('_2FA19E62-06D1-4822-840D-B4904D29CD81')" transform="translate(10, 20)">decisionflow v.1.0 (com.toyota.tfs.decisionservice.decisionflow)</text></g></g></svg>